<svg width="623" height="561" viewBox="0 0 623 561" fill="none" xmlns="http://www.w3.org/2000/svg">
<g clip-path="url(#clip0)">
<path d="M95.1241 493.107L74.3516 512.215L90.86 484.538C77.8538 460.972 56.5824 440.605 56.5824 440.605C56.5824 440.605 12.4515 482.851 12.4515 516.059C12.4515 549.267 32.2095 560.862 56.5824 560.862C80.9549 560.862 100.713 549.267 100.713 516.059C100.713 508.668 98.5234 500.829 95.1241 493.107Z" fill="#F2F2F2"/>
<path d="M69.0095 513.25V514.886C68.9122 533.913 65.7006 548.758 59.3991 559.212C59.3099 559.366 59.2126 559.512 59.1234 559.666L58.4178 559.236L57.7447 558.815C64.7356 547.527 67.2091 531.571 67.2983 514.976C67.3064 514.441 67.3146 513.898 67.3065 513.355C67.2821 506.329 66.8523 499.223 66.1629 492.319C66.1143 491.784 66.0575 491.241 66.0007 490.698C65.0437 481.59 63.665 472.887 62.2539 465.326C62.1566 464.792 62.0511 464.257 61.9457 463.73C59.5046 450.943 57.0148 441.681 56.4471 439.631C56.3822 439.38 56.3417 439.242 56.3336 439.209L57.104 438.991L57.1121 438.983L57.8907 438.764C57.8988 438.796 58.0367 439.258 58.2638 440.117C59.1315 443.326 61.3861 452.037 63.6002 463.528C63.6975 464.046 63.8029 464.581 63.9002 465.116C65.0518 471.25 66.1791 478.105 67.0713 485.301C67.2983 487.108 67.5011 488.891 67.6795 490.649C67.7443 491.192 67.8012 491.735 67.8498 492.27C68.5959 499.733 68.9825 506.726 69.0095 513.25Z" fill="white"/>
<path d="M63.6001 463.528C63.0567 463.6 62.5053 463.673 61.9457 463.73C60.426 463.886 58.8993 463.965 57.3716 463.965C50.8609 463.974 44.4313 462.523 38.5563 459.719C38.2157 460.148 37.875 460.578 37.5263 461.016C43.7065 464.03 50.4944 465.593 57.3716 465.586C59.0024 465.585 60.6322 465.499 62.2539 465.326C62.8053 465.27 63.3568 465.197 63.9002 465.116C68.3855 464.473 72.747 463.153 76.8357 461.202C76.487 460.756 76.1464 460.319 75.8139 459.889C71.9441 461.696 67.8285 462.922 63.6001 463.528Z" fill="white"/>
<path d="M67.6795 490.649C67.1199 490.682 66.5603 490.698 66.0007 490.698C65.8304 490.706 65.652 490.706 65.4817 490.706C58.427 490.706 51.4769 489.002 45.2239 485.738C38.9709 482.475 33.6004 477.749 29.5704 471.963C29.246 472.441 28.9216 472.919 28.6053 473.406C32.8058 479.259 38.3417 484.029 44.7546 487.32C51.1675 490.61 58.2727 492.327 65.4817 492.327C65.7088 492.327 65.9358 492.327 66.1629 492.319C66.7306 492.311 67.2902 492.294 67.8498 492.27C76.509 491.827 84.8572 488.901 91.8961 483.843C91.6366 483.365 91.3771 482.886 91.1094 482.408C84.2684 487.375 76.1257 490.239 67.6795 490.649Z" fill="white"/>
<path d="M69.0096 513.25C68.4419 513.298 67.8742 513.331 67.3065 513.355C66.6982 513.379 66.09 513.396 65.4817 513.396C56.0021 513.385 46.781 510.306 39.199 504.621C31.6171 498.935 26.0822 490.949 23.423 481.857C23.058 482.514 22.6931 483.162 22.3444 483.818C25.3405 492.889 31.1211 500.785 38.865 506.386C46.6089 511.986 55.9221 515.006 65.4817 515.016C66.09 515.016 66.6982 515.008 67.2984 514.976C67.8742 514.959 68.4419 514.927 69.0096 514.886C80.4764 513.99 91.1738 508.773 98.9357 500.292C98.7653 499.693 98.5707 499.101 98.3761 498.502C90.879 507.046 80.3453 512.336 69.0096 513.25Z" fill="white"/>
<path d="M418.45 163.126C435.918 163.126 450.079 148.977 450.079 131.523C450.079 114.069 435.918 99.9203 418.45 99.9203C400.981 99.9203 386.821 114.069 386.821 131.523C386.821 148.977 400.981 163.126 418.45 163.126Z" fill="#F0F0F0"/>
<path d="M580.318 101.541V231.518C566.823 231.974 553.744 236.299 542.641 243.977C531.538 251.655 522.88 262.363 517.7 274.823C517.473 275.366 517.255 275.908 517.043 276.451C514.212 283.783 512.635 291.538 512.38 299.392H382.303V200.466H483.695V101.541H580.318Z" fill="#9067C6"/>
<path d="M595.823 237.473V305.35H527.89C528.493 287.54 535.844 270.623 548.456 258.022C561.067 245.421 577.998 238.076 595.823 237.473Z" fill="#9067C6"/>
<path d="M464.612 111.135V179.009H396.674C397.118 165.851 401.251 153.083 408.602 142.158C415.954 131.232 426.228 122.589 438.254 117.213C438.806 116.962 439.366 116.718 439.925 116.483C447.762 113.221 456.127 111.409 464.612 111.135Z" fill="#9067C6"/>
<path d="M580.316 120.611H483.695V139.681H580.316V120.611Z" fill="#3F3D56"/>
<path d="M580.316 162.326H483.695V181.396H580.316V162.326Z" fill="#3F3D56"/>
<path d="M595.823 266.019V285.088H531.576C533.906 278.256 537.278 271.823 541.572 266.019H595.823Z" fill="#3F3D56"/>
<path d="M392.563 200.466H390.876C397.608 235.339 414.688 267.381 439.893 292.423C442.293 294.822 444.753 297.145 447.273 299.392H449.836C420.304 273.667 400.158 238.871 392.563 200.466Z" fill="#E4E4E4"/>
<path d="M454.977 200.466C444.769 177.77 439.505 153.165 439.536 128.282C439.536 124.319 439.666 120.387 439.925 116.483C439.366 116.718 438.806 116.962 438.255 117.213C438.028 120.884 437.914 124.573 437.914 128.282C437.893 145.453 440.349 162.538 445.205 179.009C447.36 186.327 449.996 193.495 453.096 200.466C466.864 231.282 489.022 257.611 517.044 276.451C517.255 275.908 517.474 275.366 517.701 274.823C490.282 256.345 468.561 230.595 454.977 200.466Z" fill="#E4E4E4"/>
<path d="M402.23 287.918C407.157 287.918 411.151 283.927 411.151 279.004C411.151 274.081 407.157 270.09 402.23 270.09C397.303 270.09 393.309 274.081 393.309 279.004C393.309 283.927 397.303 287.918 402.23 287.918Z" fill="#3F3D56"/>
<path d="M572.717 75.6771C572.717 107.839 554.185 119.727 530.877 120.448C530.552 120.456 530.228 120.464 529.896 120.472C529.466 120.48 529.028 120.48 528.59 120.48C504.211 120.48 484.455 108.884 484.455 75.677C484.476 72.7665 484.783 69.8651 485.371 67.0145L505.225 91.8189L489.686 53.5468C490.911 50.6944 492.305 47.8583 493.822 45.0545C494.171 44.3981 494.536 43.7499 494.901 43.0935C496.531 40.2168 498.274 37.3887 500.083 34.6417C500.399 34.1555 500.724 33.6774 501.048 33.1993C503.643 29.334 506.352 25.6551 509.004 22.2517C509.353 21.8141 509.693 21.3846 510.034 20.9552C515.605 13.9203 521.579 7.21304 527.925 0.866989C528.322 0.478029 528.549 0.259238 528.582 0.226825L528.59 0.218719C528.59 0.218719 529.003 0.607681 529.741 1.35319C535.958 7.60983 541.817 14.211 547.292 21.1253C547.624 21.5548 547.965 21.9924 548.313 22.4381C553.599 29.1378 558.37 36.2268 562.587 43.6445C562.855 44.1226 563.114 44.6007 563.374 45.0788C565.952 49.7699 568.12 54.6744 569.854 59.7378C570.048 60.3374 570.243 60.929 570.413 61.5286C571.872 66.1063 572.648 70.8735 572.717 75.6771Z" fill="#E4E4E4"/>
<path d="M540.487 74.4859V76.1227C540.39 95.1494 537.178 109.995 530.877 120.448C530.788 120.602 530.69 120.748 530.601 120.902L529.896 120.472L529.222 120.051C536.213 108.763 538.687 92.8075 538.776 76.2119C538.784 75.677 538.792 75.1341 538.784 74.5912C538.76 67.5656 538.33 60.459 537.641 53.5549C537.592 53.0201 537.535 52.4772 537.478 51.9343C536.521 42.8261 535.143 34.1231 533.732 26.5627C533.634 26.0279 533.529 25.4931 533.423 24.9664C530.982 12.1793 528.492 2.9172 527.925 0.867057C527.86 0.615853 527.819 0.478093 527.811 0.44568L528.582 0.226892L528.59 0.218787L529.368 0C529.376 0.0324133 529.514 0.494345 529.741 1.3533C530.609 4.56222 532.864 13.2733 535.078 24.7638C535.175 25.2824 535.281 25.8172 535.378 26.352C536.53 32.4863 537.657 39.3417 538.549 46.5374C538.776 48.3445 538.979 50.1273 539.157 51.8856C539.222 52.4286 539.279 52.9715 539.328 53.5063C540.074 60.9695 540.46 67.9627 540.487 74.4859Z" fill="white"/>
<path d="M617.411 163.739L596.639 182.846L613.147 155.17C600.141 131.603 578.87 111.237 578.87 111.237C578.87 111.237 534.739 153.482 534.739 186.69C534.739 219.898 554.497 231.493 578.87 231.493C603.242 231.493 623 219.898 623 186.69C623 179.299 620.811 171.46 617.411 163.739Z" fill="#E4E4E4"/>
<path d="M223.661 352.645C223.408 351.576 222.924 350.575 222.242 349.712C221.561 348.85 220.698 348.147 219.715 347.654C218.732 347.161 217.653 346.889 216.554 346.858C215.454 346.827 214.361 347.036 213.352 347.473L195.28 327.788L191.904 341.252L209.582 357.881C210.428 359.527 211.849 360.806 213.575 361.475C215.302 362.144 217.214 362.157 218.949 361.511C220.685 360.866 222.123 359.607 222.991 357.973C223.859 356.339 224.098 354.443 223.661 352.645H223.661Z" fill="#9F616A"/>
<path d="M184.846 549.02L195.888 549.019L201.141 506.462L184.844 506.463L184.846 549.02Z" fill="#9F616A"/>
<path d="M182.029 545.417L203.775 545.416H203.776C207.451 545.416 210.976 546.875 213.575 549.472C216.174 552.069 217.634 555.59 217.634 559.263V559.713L182.03 559.714L182.029 545.417Z" fill="#2F2E41"/>
<path d="M121.434 538.09L131.757 542.005L151.784 504.082L136.547 498.304L121.434 538.09Z" fill="#9F616A"/>
<path d="M120.08 533.724L140.411 541.434L140.412 541.434C143.848 542.737 146.625 545.351 148.132 548.7C149.64 552.05 149.754 555.86 148.45 559.293L148.29 559.714L115.003 547.09L120.08 533.724Z" fill="#2F2E41"/>
<path d="M157.783 407.468L148.632 456.666C148.632 456.666 123.795 525.891 125.538 527.633C127.281 529.374 151.247 535.47 149.939 531.551C148.632 527.633 178.698 468.857 178.698 468.857L157.783 407.468Z" fill="#2F2E41"/>
<path d="M194.891 318.064C194.891 318.064 213.363 342.19 210.942 343.506C208.521 344.822 199.145 351.801 199.145 351.801L189.604 325.64L194.891 318.064Z" fill="#E4E4E4"/>
<path d="M200.05 342.416C200.05 342.416 203.1 365.056 201.792 369.845C200.485 374.634 201.357 510.473 202.228 512.649C203.1 514.826 205.714 522.228 204.407 525.711C203.1 529.194 185.234 537.901 182.62 534.854C180.005 531.806 160.833 420.785 160.833 420.785C160.833 420.785 133.817 353.736 139.917 347.205C146.018 340.675 200.05 342.416 200.05 342.416Z" fill="#2F2E41"/>
<path d="M165.096 196.489C176.653 194.146 184.12 182.885 181.774 171.339C179.429 159.792 168.159 152.331 156.603 154.674C145.047 157.018 137.58 168.278 139.925 179.825C142.27 191.372 153.54 198.833 165.096 196.489Z" fill="#9F616A"/>
<path d="M178.262 161.017C178.274 157.281 174.85 154.485 171.504 152.818C164.223 149.219 155.947 148.151 147.99 149.785C142.396 150.951 136.917 153.603 133.429 158.125C129.36 163.4 128.5 170.71 130.237 177.139C131.975 183.569 136.065 189.171 140.964 193.687C143.315 195.855 146.796 197.886 149.505 196.184C150.543 195.415 151.359 194.384 151.869 193.197C153.277 190.483 154.405 187.633 155.236 184.692C155.871 182.441 156.344 180.109 157.478 178.062C158.611 176.016 160.58 174.25 162.916 174.103C164.846 173.981 166.955 174.928 168.619 173.945C170.471 172.851 170.436 170.208 170.167 168.076C169.873 165.738 169.209 163.096 169.406 160.79C170.182 161.021 178.267 162.805 178.262 161.017Z" fill="#2F2E41"/>
<path d="M237.932 329.247L212.55 333.772L217.079 359.134L242.461 354.609L237.932 329.247Z" fill="#9067C6"/>
<path d="M223.858 331.634C228.209 331.634 231.736 328.11 231.736 323.762C231.736 319.415 228.209 315.891 223.858 315.891C219.507 315.891 215.979 319.415 215.979 323.762C215.979 328.11 219.507 331.634 223.858 331.634Z" fill="#3F3D56"/>
<path d="M183.159 223.794C182.619 220.34 180.898 217.178 178.289 214.848L174.395 202.957H151.517L145.142 212.953C138.244 215.92 133.138 220.624 132.946 226.17C131.891 229.853 136.432 346.77 137.739 351.124C138.122 352.391 143.338 353.07 150.663 353.37C157.382 353.645 165.874 353.606 174.027 353.418C187.526 353.105 200.11 352.382 202.228 351.995C207.021 351.124 183.633 226.541 183.159 223.794Z" fill="#E4E4E4"/>
<path d="M162.932 378.835C162.005 378.244 161.219 377.457 160.63 376.529C160.04 375.601 159.662 374.555 159.52 373.466C159.379 372.376 159.479 371.268 159.812 370.221C160.146 369.174 160.705 368.213 161.451 367.405L148.824 343.859L162.659 345.122L172.528 367.288C173.804 368.629 174.542 370.391 174.604 372.24C174.666 374.089 174.046 375.897 172.863 377.32C171.681 378.744 170.016 379.684 168.186 379.963C166.355 380.243 164.486 379.841 162.932 378.835V378.835Z" fill="#9F616A"/>
<path d="M309.804 561H0.811005C0.595913 561 0.38963 560.915 0.237537 560.763C0.0854443 560.611 0 560.405 0 560.19C0 559.975 0.0854443 559.769 0.237537 559.617C0.38963 559.465 0.595913 559.379 0.811005 559.379H309.804C310.019 559.379 310.225 559.465 310.377 559.617C310.529 559.769 310.615 559.975 310.615 560.19C310.615 560.405 310.529 560.611 310.377 560.763C310.225 560.915 310.019 561 309.804 561Z" fill="#CACACA"/>
<path d="M160.833 210.932C160.833 210.932 180.877 219.204 173.469 240.102C166.062 261 157.783 285.817 157.783 285.817C157.783 285.817 168.241 341.981 168.241 344.158C168.241 346.335 174.777 358.09 172.162 360.267C169.548 362.444 152.118 366.798 151.682 364.621C150.347 359.605 148.747 354.664 146.889 349.818C146.018 348.076 125.538 293.654 128.152 288.865C130.076 285.34 131.764 253.052 132.522 236.242C132.697 231.447 134.119 226.779 136.647 222.699C139.176 218.619 142.724 215.267 146.942 212.974C151.005 210.822 155.735 209.658 160.833 210.932Z" fill="#E4E4E4"/>
<path d="M535.078 24.7638C534.534 24.8367 533.983 24.9097 533.423 24.9664C531.904 25.1227 530.377 25.2011 528.849 25.2014C522.339 25.21 515.909 23.759 510.034 20.9552C509.693 21.3847 509.353 21.8142 509.004 22.2518C515.184 25.266 521.972 26.8292 528.849 26.822C530.48 26.8216 532.11 26.735 533.732 26.5627C534.283 26.506 534.835 26.4331 535.378 26.3521C539.863 25.7093 544.225 24.3896 548.313 22.4381C547.965 21.9925 547.624 21.5549 547.292 21.1254C543.422 22.9325 539.306 24.1586 535.078 24.7638Z" fill="white"/>
<path d="M539.157 51.8857C538.598 51.9181 538.038 51.9343 537.478 51.9343C537.308 51.9424 537.13 51.9424 536.959 51.9424C529.905 51.9425 522.955 50.2381 516.702 46.9745C510.449 43.7109 505.078 38.9849 501.048 33.1994C500.724 33.6775 500.399 34.1556 500.083 34.6418C504.284 40.4957 509.82 45.2655 516.232 48.5559C522.645 51.8464 529.75 53.5628 536.959 53.5631C537.187 53.5631 537.414 53.5631 537.641 53.555C538.208 53.5469 538.768 53.5307 539.328 53.5064C547.987 53.0632 556.335 50.1374 563.374 45.0789C563.114 44.6008 562.855 44.1227 562.587 43.6446C555.746 48.6111 547.603 51.4751 539.157 51.8857Z" fill="white"/>
<path d="M540.487 74.4859C539.92 74.5345 539.352 74.5669 538.784 74.5912C538.176 74.6155 537.568 74.6318 536.959 74.6318C527.48 74.6208 518.259 71.5422 510.677 65.8568C503.095 60.1714 497.56 52.185 494.901 43.0935C494.536 43.75 494.171 44.3982 493.822 45.0546C496.818 54.125 502.599 62.0213 510.343 67.6218C518.087 73.2224 527.4 76.2422 536.959 76.2524C537.568 76.2524 538.176 76.2443 538.776 76.2119C539.352 76.1957 539.92 76.1633 540.487 76.1227C551.954 75.2264 562.651 70.0096 570.413 61.5286C570.243 60.929 570.048 60.3374 569.854 59.7378C562.357 68.2823 551.823 73.5724 540.487 74.4859Z" fill="white"/>
<path d="M591.297 185.502V187.138C591.199 206.165 587.988 221.01 581.686 231.464C581.597 231.618 581.5 231.763 581.411 231.917L580.705 231.488L580.032 231.067C587.023 219.779 589.496 203.823 589.585 187.228C589.594 186.693 589.602 186.15 589.594 185.607C589.569 178.581 589.139 171.475 588.45 164.571C588.401 164.036 588.345 163.493 588.288 162.95C587.331 153.842 585.952 145.139 584.541 137.578C584.444 137.044 584.338 136.509 584.233 135.982C581.792 123.195 579.302 113.933 578.734 111.883C578.669 111.632 578.629 111.494 578.621 111.461L579.391 111.243L579.399 111.234L580.178 111.016C580.186 111.048 580.324 111.51 580.551 112.369C581.419 115.578 583.673 124.289 585.887 135.78C585.985 136.298 586.09 136.833 586.187 137.368C587.339 143.502 588.466 150.357 589.358 157.553C589.585 159.36 589.788 161.143 589.967 162.901C590.032 163.444 590.088 163.987 590.137 164.522C590.883 171.985 591.27 178.978 591.297 185.502Z" fill="white"/>
<path d="M585.887 135.779C585.344 135.852 584.792 135.925 584.233 135.982C582.713 136.138 581.187 136.217 579.659 136.217C573.148 136.226 566.718 134.775 560.843 131.971C560.503 132.4 560.162 132.83 559.813 133.267C565.994 136.282 572.782 137.845 579.659 137.838C581.29 137.837 582.919 137.751 584.541 137.578C585.093 137.522 585.644 137.449 586.187 137.368C590.673 136.725 595.034 135.405 599.123 133.454C598.774 133.008 598.434 132.571 598.101 132.141C594.231 133.948 590.116 135.174 585.887 135.779Z" fill="white"/>
<path d="M589.967 162.901C589.407 162.934 588.847 162.95 588.288 162.95C588.118 162.958 587.939 162.958 587.769 162.958C580.714 162.958 573.764 161.254 567.511 157.99C561.258 154.727 555.888 150.001 551.858 144.215C551.533 144.693 551.209 145.171 550.893 145.657C555.093 151.511 560.629 156.281 567.042 159.572C573.455 162.862 580.56 164.578 587.769 164.579C587.996 164.579 588.223 164.579 588.45 164.571C589.018 164.563 589.577 164.546 590.137 164.522C598.796 164.079 607.144 161.153 614.183 156.095C613.924 155.616 613.664 155.138 613.397 154.66C606.556 159.627 598.413 162.491 589.967 162.901Z" fill="white"/>
<path d="M591.297 185.502C590.729 185.55 590.161 185.583 589.594 185.607C588.985 185.631 588.377 185.647 587.769 185.647C578.289 185.637 569.068 182.558 561.486 176.872C553.904 171.187 548.369 163.201 545.71 154.109C545.345 154.766 544.98 155.414 544.631 156.07C547.628 165.141 553.408 173.037 561.152 178.638C568.896 184.238 578.209 187.258 587.769 187.268C588.377 187.268 588.985 187.26 589.586 187.228C590.161 187.211 590.729 187.179 591.297 187.138C602.764 186.242 613.461 181.025 621.223 172.544C621.053 171.945 620.858 171.353 620.663 170.753C613.166 179.298 602.632 184.588 591.297 185.502Z" fill="white"/>
</g>
<defs>
<clipPath id="clip0">
<rect width="623" height="561" fill="white"/>
</clipPath>
</defs>
</svg>
